<mxfile host="Electron" agent="Mozilla/5.0 (Windows NT 10.0; Win64; x64) AppleWebKit/537.36 (KHTML, like Gecko) draw.io/24.7.8 Chrome/128.0.6613.36 Electron/32.0.1 Safari/537.36" version="24.7.8" pages="2">
  <diagram name="第 1 页" id="phJpzcdNW7Wzhezeq2yP">
    <mxGraphModel dx="2261" dy="844" grid="1" gridSize="10" guides="1" tooltips="1" connect="1" arrows="1" fold="1" page="1" pageScale="1" pageWidth="827" pageHeight="1169" math="0" shadow="0">
      <root>
        <mxCell id="0" />
        <mxCell id="1" parent="0" />
        <mxCell id="mowe22knQ--Ad1ylYHHc-1" value="" style="rounded=0;whiteSpace=wrap;html=1;" parent="1" vertex="1">
          <mxGeometry x="130" y="270" width="10" height="210" as="geometry" />
        </mxCell>
        <mxCell id="mowe22knQ--Ad1ylYHHc-6" value="" style="rounded=0;whiteSpace=wrap;html=1;" parent="1" vertex="1">
          <mxGeometry x="414" y="270" width="10" height="210" as="geometry" />
        </mxCell>
        <mxCell id="mowe22knQ--Ad1ylYHHc-7" value="" style="rounded=0;whiteSpace=wrap;html=1;" parent="1" vertex="1">
          <mxGeometry x="690" y="270" width="10" height="210" as="geometry" />
        </mxCell>
        <mxCell id="mowe22knQ--Ad1ylYHHc-8" value="" style="rounded=1;whiteSpace=wrap;html=1;arcSize=50;" parent="1" vertex="1">
          <mxGeometry x="20" y="460" width="230" height="20" as="geometry" />
        </mxCell>
        <mxCell id="mowe22knQ--Ad1ylYHHc-9" value="" style="rounded=1;whiteSpace=wrap;html=1;arcSize=50;" parent="1" vertex="1">
          <mxGeometry x="40" y="440" width="190" height="20" as="geometry" />
        </mxCell>
        <mxCell id="mowe22knQ--Ad1ylYHHc-10" value="" style="rounded=1;whiteSpace=wrap;html=1;arcSize=50;" parent="1" vertex="1">
          <mxGeometry x="60" y="420" width="150" height="20" as="geometry" />
        </mxCell>
        <mxCell id="mowe22knQ--Ad1ylYHHc-11" value="" style="rounded=1;whiteSpace=wrap;html=1;arcSize=50;" parent="1" vertex="1">
          <mxGeometry x="80" y="400" width="110" height="20" as="geometry" />
        </mxCell>
        <mxCell id="mowe22knQ--Ad1ylYHHc-16" value="" style="shape=curlyBracket;whiteSpace=wrap;html=1;rounded=1;labelPosition=left;verticalLabelPosition=middle;align=right;verticalAlign=middle;" parent="1" vertex="1">
          <mxGeometry x="-20" y="400" width="20" height="60" as="geometry" />
        </mxCell>
        <mxCell id="mowe22knQ--Ad1ylYHHc-18" value="N-1层" style="text;html=1;align=center;verticalAlign=middle;resizable=0;points=[];autosize=1;strokeColor=none;fillColor=none;" parent="1" vertex="1">
          <mxGeometry x="-70" y="415" width="50" height="30" as="geometry" />
        </mxCell>
        <mxCell id="mowe22knQ--Ad1ylYHHc-19" value="0" style="text;html=1;align=center;verticalAlign=middle;resizable=0;points=[];autosize=1;strokeColor=none;fillColor=none;" parent="1" vertex="1">
          <mxGeometry x="120" y="240" width="30" height="30" as="geometry" />
        </mxCell>
        <mxCell id="mowe22knQ--Ad1ylYHHc-20" value="1" style="text;html=1;align=center;verticalAlign=middle;resizable=0;points=[];autosize=1;strokeColor=none;fillColor=none;" parent="1" vertex="1">
          <mxGeometry x="404" y="240" width="30" height="30" as="geometry" />
        </mxCell>
        <mxCell id="mowe22knQ--Ad1ylYHHc-25" value="2" style="text;html=1;align=center;verticalAlign=middle;resizable=0;points=[];autosize=1;strokeColor=none;fillColor=none;" parent="1" vertex="1">
          <mxGeometry x="680" y="240" width="30" height="30" as="geometry" />
        </mxCell>
        <mxCell id="mowe22knQ--Ad1ylYHHc-27" style="edgeStyle=orthogonalEdgeStyle;rounded=0;orthogonalLoop=1;jettySize=auto;html=1;entryX=0;entryY=0.5;entryDx=0;entryDy=0;" parent="1" source="mowe22knQ--Ad1ylYHHc-26" target="mowe22knQ--Ad1ylYHHc-8" edge="1">
          <mxGeometry relative="1" as="geometry" />
        </mxCell>
        <mxCell id="mowe22knQ--Ad1ylYHHc-26" value="最低层" style="text;html=1;align=center;verticalAlign=middle;resizable=0;points=[];autosize=1;strokeColor=none;fillColor=none;" parent="1" vertex="1">
          <mxGeometry x="-75" y="455" width="60" height="30" as="geometry" />
        </mxCell>
        <mxCell id="mowe22knQ--Ad1ylYHHc-28" value="" style="rounded=1;whiteSpace=wrap;html=1;dashed=1;arcSize=50;" parent="1" vertex="1">
          <mxGeometry x="324" y="460" width="190" height="20" as="geometry" />
        </mxCell>
        <mxCell id="mowe22knQ--Ad1ylYHHc-29" value="" style="rounded=1;whiteSpace=wrap;html=1;dashed=1;arcSize=50;" parent="1" vertex="1">
          <mxGeometry x="344" y="440" width="150" height="20" as="geometry" />
        </mxCell>
        <mxCell id="mowe22knQ--Ad1ylYHHc-30" value="" style="rounded=1;whiteSpace=wrap;html=1;dashed=1;arcSize=50;" parent="1" vertex="1">
          <mxGeometry x="364" y="420" width="110" height="20" as="geometry" />
        </mxCell>
        <mxCell id="mowe22knQ--Ad1ylYHHc-31" value="" style="html=1;shadow=0;dashed=0;align=center;verticalAlign=middle;shape=mxgraph.arrows2.jumpInArrow;dy=7.2;dx=20.3;arrowHead=33.34;rotation=45;" parent="1" vertex="1">
          <mxGeometry x="238.23" y="358.41" width="80" height="85" as="geometry" />
        </mxCell>
        <mxCell id="mowe22knQ--Ad1ylYHHc-32" value="1步" style="text;html=1;align=center;verticalAlign=middle;resizable=0;points=[];autosize=1;strokeColor=none;fillColor=none;" parent="1" vertex="1">
          <mxGeometry x="258.23" y="350" width="40" height="30" as="geometry" />
        </mxCell>
        <mxCell id="mowe22knQ--Ad1ylYHHc-33" value="" style="html=1;shadow=0;dashed=0;align=center;verticalAlign=middle;shape=mxgraph.arrows2.jumpInArrow;dy=7.69;dx=32.89;arrowHead=34.21;rotation=-210;direction=west;flipV=1;" parent="1" vertex="1">
          <mxGeometry x="242.77" y="392.79" width="350" height="223.18" as="geometry" />
        </mxCell>
        <mxCell id="mowe22knQ--Ad1ylYHHc-35" value="2步" style="text;html=1;align=center;verticalAlign=middle;resizable=0;points=[];autosize=1;strokeColor=none;fillColor=none;" parent="1" vertex="1">
          <mxGeometry x="384" y="540" width="40" height="30" as="geometry" />
        </mxCell>
        <mxCell id="mowe22knQ--Ad1ylYHHc-36" value="" style="html=1;shadow=0;dashed=0;align=center;verticalAlign=middle;shape=mxgraph.arrows2.jumpInArrow;dy=7.2;dx=20.3;arrowHead=33.34;rotation=45;" parent="1" vertex="1">
          <mxGeometry x="530" y="366.82000000000005" width="80" height="85" as="geometry" />
        </mxCell>
        <mxCell id="mowe22knQ--Ad1ylYHHc-37" value="3步" style="text;html=1;align=center;verticalAlign=middle;resizable=0;points=[];autosize=1;strokeColor=none;fillColor=none;" parent="1" vertex="1">
          <mxGeometry x="550" y="358.41" width="40" height="30" as="geometry" />
        </mxCell>
        <mxCell id="mowe22knQ--Ad1ylYHHc-38" value="" style="rounded=1;whiteSpace=wrap;html=1;dashed=1;arcSize=50;" parent="1" vertex="1">
          <mxGeometry x="580" y="460" width="230" height="20" as="geometry" />
        </mxCell>
      </root>
    </mxGraphModel>
  </diagram>
  <diagram id="bYFXBvy9jUIlRyhWgSco" name="第 2 页">
    <mxGraphModel dx="1434" dy="844" grid="1" gridSize="10" guides="1" tooltips="1" connect="1" arrows="1" fold="1" page="1" pageScale="1" pageWidth="827" pageHeight="1169" math="0" shadow="0">
      <root>
        <mxCell id="0" />
        <mxCell id="1" parent="0" />
        <mxCell id="hBlIeC8AjKGuqHlN1f4Z-1" value="" style="rounded=0;whiteSpace=wrap;html=1;" parent="1" vertex="1">
          <mxGeometry x="130" y="110" width="10" height="210" as="geometry" />
        </mxCell>
        <mxCell id="hBlIeC8AjKGuqHlN1f4Z-6" value="0" style="text;html=1;align=center;verticalAlign=middle;resizable=0;points=[];autosize=1;strokeColor=none;fillColor=none;" parent="1" vertex="1">
          <mxGeometry x="120" y="80" width="30" height="30" as="geometry" />
        </mxCell>
        <mxCell id="hBlIeC8AjKGuqHlN1f4Z-7" value="" style="rounded=0;whiteSpace=wrap;html=1;" parent="1" vertex="1">
          <mxGeometry x="414" y="110" width="10" height="210" as="geometry" />
        </mxCell>
        <mxCell id="hBlIeC8AjKGuqHlN1f4Z-8" value="" style="rounded=0;whiteSpace=wrap;html=1;" parent="1" vertex="1">
          <mxGeometry x="690" y="110" width="10" height="210" as="geometry" />
        </mxCell>
        <mxCell id="hBlIeC8AjKGuqHlN1f4Z-9" value="4" style="rounded=1;whiteSpace=wrap;html=1;arcSize=50;" parent="1" vertex="1">
          <mxGeometry x="20" y="300" width="230" height="20" as="geometry" />
        </mxCell>
        <mxCell id="hBlIeC8AjKGuqHlN1f4Z-10" value="3" style="rounded=1;whiteSpace=wrap;html=1;arcSize=50;" parent="1" vertex="1">
          <mxGeometry x="40" y="280" width="190" height="20" as="geometry" />
        </mxCell>
        <mxCell id="hBlIeC8AjKGuqHlN1f4Z-11" value="2" style="rounded=1;whiteSpace=wrap;html=1;arcSize=50;" parent="1" vertex="1">
          <mxGeometry x="60" y="260" width="150" height="20" as="geometry" />
        </mxCell>
        <mxCell id="hBlIeC8AjKGuqHlN1f4Z-12" value="1" style="rounded=1;whiteSpace=wrap;html=1;arcSize=50;" parent="1" vertex="1">
          <mxGeometry x="80" y="240" width="110" height="20" as="geometry" />
        </mxCell>
        <mxCell id="hBlIeC8AjKGuqHlN1f4Z-13" value="1" style="text;html=1;align=center;verticalAlign=middle;resizable=0;points=[];autosize=1;strokeColor=none;fillColor=none;" parent="1" vertex="1">
          <mxGeometry x="404" y="80" width="30" height="30" as="geometry" />
        </mxCell>
        <mxCell id="hBlIeC8AjKGuqHlN1f4Z-18" value="2" style="text;html=1;align=center;verticalAlign=middle;resizable=0;points=[];autosize=1;strokeColor=none;fillColor=none;" parent="1" vertex="1">
          <mxGeometry x="680" y="80" width="30" height="30" as="geometry" />
        </mxCell>
        <mxCell id="bwoboARHtCnDlpqlrvOy-3" value="4" style="rounded=1;whiteSpace=wrap;html=1;dashed=1;arcSize=50;" vertex="1" parent="1">
          <mxGeometry x="580" y="300" width="230" height="20" as="geometry" />
        </mxCell>
        <mxCell id="bwoboARHtCnDlpqlrvOy-4" value="3" style="rounded=1;whiteSpace=wrap;html=1;dashed=1;arcSize=50;" vertex="1" parent="1">
          <mxGeometry x="324" y="300" width="190" height="20" as="geometry" />
        </mxCell>
        <mxCell id="bwoboARHtCnDlpqlrvOy-5" value="2" style="rounded=1;whiteSpace=wrap;html=1;dashed=1;arcSize=50;" vertex="1" parent="1">
          <mxGeometry x="620" y="280" width="150" height="20" as="geometry" />
        </mxCell>
        <mxCell id="bwoboARHtCnDlpqlrvOy-6" value="1" style="rounded=1;whiteSpace=wrap;html=1;dashed=1;arcSize=50;" vertex="1" parent="1">
          <mxGeometry x="364" y="280" width="110" height="20" as="geometry" />
        </mxCell>
        <mxCell id="bwoboARHtCnDlpqlrvOy-7" value="" style="rounded=0;whiteSpace=wrap;html=1;" vertex="1" parent="1">
          <mxGeometry x="130" y="450" width="10" height="210" as="geometry" />
        </mxCell>
        <mxCell id="bwoboARHtCnDlpqlrvOy-8" value="0" style="text;html=1;align=center;verticalAlign=middle;resizable=0;points=[];autosize=1;strokeColor=none;fillColor=none;" vertex="1" parent="1">
          <mxGeometry x="120" y="420" width="30" height="30" as="geometry" />
        </mxCell>
        <mxCell id="bwoboARHtCnDlpqlrvOy-9" value="5" style="rounded=1;whiteSpace=wrap;html=1;arcSize=50;" vertex="1" parent="1">
          <mxGeometry x="20" y="640" width="230" height="20" as="geometry" />
        </mxCell>
        <mxCell id="bwoboARHtCnDlpqlrvOy-10" value="4" style="rounded=1;whiteSpace=wrap;html=1;arcSize=50;" vertex="1" parent="1">
          <mxGeometry x="40" y="620" width="190" height="20" as="geometry" />
        </mxCell>
        <mxCell id="bwoboARHtCnDlpqlrvOy-11" value="3" style="rounded=1;whiteSpace=wrap;html=1;arcSize=50;" vertex="1" parent="1">
          <mxGeometry x="60" y="600" width="150" height="20" as="geometry" />
        </mxCell>
        <mxCell id="bwoboARHtCnDlpqlrvOy-12" value="2" style="rounded=1;whiteSpace=wrap;html=1;arcSize=50;" vertex="1" parent="1">
          <mxGeometry x="80" y="580" width="110" height="20" as="geometry" />
        </mxCell>
        <mxCell id="bwoboARHtCnDlpqlrvOy-13" value="" style="rounded=0;whiteSpace=wrap;html=1;" vertex="1" parent="1">
          <mxGeometry x="414" y="450" width="10" height="210" as="geometry" />
        </mxCell>
        <mxCell id="bwoboARHtCnDlpqlrvOy-14" value="" style="rounded=0;whiteSpace=wrap;html=1;" vertex="1" parent="1">
          <mxGeometry x="690" y="450" width="10" height="210" as="geometry" />
        </mxCell>
        <mxCell id="bwoboARHtCnDlpqlrvOy-15" value="1" style="text;html=1;align=center;verticalAlign=middle;resizable=0;points=[];autosize=1;strokeColor=none;fillColor=none;" vertex="1" parent="1">
          <mxGeometry x="404" y="420" width="30" height="30" as="geometry" />
        </mxCell>
        <mxCell id="bwoboARHtCnDlpqlrvOy-16" value="2" style="text;html=1;align=center;verticalAlign=middle;resizable=0;points=[];autosize=1;strokeColor=none;fillColor=none;" vertex="1" parent="1">
          <mxGeometry x="680" y="420" width="30" height="30" as="geometry" />
        </mxCell>
        <mxCell id="bwoboARHtCnDlpqlrvOy-17" value="1" style="rounded=1;whiteSpace=wrap;html=1;arcSize=50;" vertex="1" parent="1">
          <mxGeometry x="100" y="560" width="70" height="20" as="geometry" />
        </mxCell>
        <mxCell id="bwoboARHtCnDlpqlrvOy-18" value="5" style="rounded=1;whiteSpace=wrap;html=1;dashed=1;arcSize=50;" vertex="1" parent="1">
          <mxGeometry x="580" y="640" width="230" height="20" as="geometry" />
        </mxCell>
        <mxCell id="bwoboARHtCnDlpqlrvOy-19" value="4" style="rounded=1;whiteSpace=wrap;html=1;dashed=1;arcSize=50;" vertex="1" parent="1">
          <mxGeometry x="324" y="640" width="190" height="20" as="geometry" />
        </mxCell>
        <mxCell id="bwoboARHtCnDlpqlrvOy-20" value="3" style="rounded=1;whiteSpace=wrap;html=1;dashed=1;arcSize=50;" vertex="1" parent="1">
          <mxGeometry x="620" y="620" width="150" height="20" as="geometry" />
        </mxCell>
        <mxCell id="bwoboARHtCnDlpqlrvOy-21" value="2" style="rounded=1;whiteSpace=wrap;html=1;dashed=1;arcSize=50;" vertex="1" parent="1">
          <mxGeometry x="364" y="620" width="110" height="20" as="geometry" />
        </mxCell>
        <mxCell id="bwoboARHtCnDlpqlrvOy-22" value="1" style="rounded=1;whiteSpace=wrap;html=1;dashed=1;arcSize=50;" vertex="1" parent="1">
          <mxGeometry x="660" y="600" width="70" height="20" as="geometry" />
        </mxCell>
        <mxCell id="bwoboARHtCnDlpqlrvOy-23" value="4层罗汉塔每层初次移动的位置" style="text;html=1;align=center;verticalAlign=middle;resizable=0;points=[];autosize=1;strokeColor=none;fillColor=none;fontSize=24;" vertex="1" parent="1">
          <mxGeometry x="20" y="25" width="350" height="40" as="geometry" />
        </mxCell>
        <mxCell id="bwoboARHtCnDlpqlrvOy-25" value="5层罗汉塔每层初次移动的位置" style="text;html=1;align=center;verticalAlign=middle;resizable=0;points=[];autosize=1;strokeColor=none;fillColor=none;fontSize=24;" vertex="1" parent="1">
          <mxGeometry x="20" y="370" width="350" height="40" as="geometry" />
        </mxCell>
      </root>
    </mxGraphModel>
  </diagram>
</mxfile>
